<svg width="22" height="22" viewBox="0 0 22 22" fill="none" xmlns="http://www.w3.org/2000/svg">
<g clip-path="url(#clip0_1_32)">
<path d="M9.53332 4.98663C9.60665 4.9133 9.67999 4.76663 9.67999 4.61996C9.67999 4.4733 9.60665 4.32663 9.53332 4.2533C9.45999 4.17996 9.31332 4.10663 9.16665 4.10663C9.01999 4.10663 8.87332 4.10663 8.79999 4.17996C8.72665 4.2533 8.65332 4.39996 8.65332 4.54663C8.65332 4.6933 8.72665 4.83996 8.79999 4.91329C8.94665 5.20663 9.38665 5.20663 9.53332 4.98663Z" fill="#575757"/>
<path d="M21.6333 12.8333C21.6333 12.4666 21.56 12.1733 21.4133 11.88C21.2667 11.5866 21.0467 11.2933 20.8267 11.0733L20.68 11V9.16664C20.68 6.81997 19.7267 4.61997 18.1133 2.9333C16.5 1.24664 14.2267 0.366638 11.88 0.366638H10.0467C7.7 0.366638 5.5 1.31997 3.81333 2.9333C2.2 4.61997 1.32 6.81997 1.24667 9.16664V11L1.1 11.0733C0.880002 11.2933 0.660002 11.5866 0.513335 11.88C0.366668 12.1733 0.293335 12.54 0.293335 12.9066C0.293335 13.2733 0.366668 13.5666 0.513335 13.9333C0.660002 14.2266 0.880002 14.52 1.1 14.74L1.24667 14.8133V15.5466C1.24667 17.16 1.90667 18.7 3.00667 19.8C4.18 20.9733 5.64667 21.56 7.26 21.56H14.5933C16.2067 21.56 17.7467 20.9 18.8467 19.8C20.02 18.6266 20.6067 17.16 20.6067 15.5466V14.6666L20.7533 14.5933C20.9733 14.3733 21.1933 14.08 21.34 13.7866C21.56 13.4933 21.6333 13.2 21.6333 12.8333ZM2.34667 9.16664C2.34667 7.11331 3.15334 5.20664 4.62 3.73997C6.08667 2.2733 7.99334 1.46664 10.0467 1.46664H11.88C13.9333 1.46664 15.84 2.2733 17.3067 3.73997C18.7733 5.20664 19.58 7.11331 19.58 9.16664V10.4866H2.71334H2.34667V9.16664ZM19.58 15.62C19.58 16.94 19.0667 18.1866 18.1133 19.14C17.16 20.0933 15.9133 20.6066 14.5933 20.6066H7.33334C6.08667 20.6066 4.84 20.0933 3.96 19.2133C3.08 18.3333 2.49334 17.16 2.42 15.84V15.3266L2.93334 15.4733C3.81333 15.6933 4.62 16.1333 5.35333 16.7933C5.57334 16.94 5.79333 17.0866 6.01333 17.3066C7.40667 18.26 9.31334 18.26 10.7067 17.3066C12.1 16.1333 13.86 15.4733 15.6933 15.3266H19.58V15.62ZM20.1667 13.7133C19.9467 13.9333 19.58 14.08 19.2867 14.08H15.62C13.9333 14.08 12.1 14.8133 9.97334 16.28C9.46 16.6466 8.87334 16.7933 8.28667 16.7933C7.7 16.7933 7.11334 16.5733 6.6 16.28C6.38 16.1333 6.23334 15.9866 6.01333 15.84L5.86781 15.7666C4.91448 14.96 3.88667 14.4466 2.71334 14.2266C2.71334 14.2266 2.62918 14.1672 2.56667 14.1533C2.51076 14.1409 2.42 14.1533 2.42 14.1533C2.12667 14.08 1.90667 13.86 1.76 13.64C1.61334 13.3466 1.54 13.0533 1.54 12.6866C1.61333 12.3933 1.76 12.1 1.98 11.88C2.2 11.66 2.56667 11.5133 2.86 11.5133H19.2867C19.6533 11.5133 19.9467 11.66 20.1667 11.88C20.3867 12.1 20.5333 12.4666 20.5333 12.76C20.5333 13.2 20.3867 13.4933 20.1667 13.7133Z" fill="#575757"/>
<path d="M6.82 7.69995C6.89334 7.62661 6.96667 7.47995 6.96667 7.33328C6.96667 7.18661 6.89334 7.03995 6.82 6.96661C6.67334 6.81995 6.6 6.81995 6.38 6.81995C6.16 6.81995 6.16 6.81995 6.01334 6.96661C5.94 7.03995 5.86667 7.18661 5.86667 7.33328C5.86667 7.47995 5.94 7.62661 6.01334 7.69995C6.23334 7.91995 6.6 7.91995 6.82 7.69995Z" fill="#575757"/>
</g>
<defs>
<clipPath id="clip0_1_32">
<rect width="22" height="22" fill="white"/>
</clipPath>
</defs>
</svg>
